<?xml version="1.0" encoding="UTF-8"?>
<svg id="Layer_1" xmlns="http://www.w3.org/2000/svg" version="1.1" viewBox="0 0 100 100">
  <!-- Generator: Adobe Illustrator 29.0.0, SVG Export Plug-In . SVG Version: 2.1.0 Build 186)  -->
  <defs>
    <style>
      .st0 {
        fill: #6d6e71;
      }
    </style>
  </defs>
  <path class="st0" d="M83.24,44.45c10.48-7.86,6.4-19.97,6.4-19.97,0,0,1.7,7.55-4.39,13.95-6.09,6.4-11.79,6.63-18.27,10.48-6.48,3.85-4.63,9.17-4.47,16.34.15,7.17-3.16,10.25-3.16,10.25,4.63-2.16,5.16-11.49,5.4-17.19.23-5.7,8.02-6.01,18.5-13.88Z"/>
  <path class="st0" d="M86.94,44.29c-2.47,2.24-10.02,4.86-15.96,8.71s-5.78,7.86-5.78,7.86c1.39-4.01,7.63-6.09,9.02-6.86,1.39-.77,8.65-2,14.35-6.86,5.7-4.86,5-13.72,5-13.72-.54,3.78-4.16,8.63-6.63,10.87Z"/>
  <path class="st0" d="M72.53,56.78c-4.7,1.93-7.32,6.01-7.32,6.01,0,0,2.7-2.31,6.55-3.16,3.85-.85,5.78,0,12.95-2.7,7.17-2.7,8.63-9.79,8.63-9.79-7.09,7.79-16.11,7.71-20.81,9.64Z"/>
  <path class="st0" d="M65.2,64.88c3.78-1.54,9.17.39,14.07-.46,4.89-.85,7.59-6.24,7.59-6.24-3.93,3.24-12.64,2.85-15.73,3.22-3.08.37-5.94,3.49-5.94,3.49Z"/>
  <path class="st0" d="M69.98,65.72c-3.08-.77-4.78,1.08-4.78,1.08,3.62.08,3.16,1.39,6.86,2,3.7.62,6.86-2.64,6.86-2.64-1.31.52-5.86.33-8.94-.45Z"/>
  <path class="st0" d="M64.05,68.89c1.31-.08,2.85,2,4.86,3.08,2,1.08,5.55-.62,5.55-.62-2.39.08-5.16-1.54-6.55-2.47-1.39-.92-3.85,0-3.85,0Z"/>
  <path class="st0" d="M66.59,72.33c-.77-.9-1.44-1.64-3.16-1.36,0,0,1.54.56,1.77,1.47.23.92,2,2.07,4.05,1.53,0,0-1.89-.75-2.66-1.64Z"/>
  <path class="st0" d="M62.97,72.51c.47.57,0,1.23.46,2.16.46.93,1.77.85,1.77.85-.93-3.24-2.24-3.01-2.24-3.01Z"/>
  <path class="st0" d="M37.5,65.26c.15-7.17,2-12.49-4.47-16.34-6.48-3.85-12.18-4.09-18.27-10.48-6.09-6.4-4.39-13.95-4.39-13.95,0,0-4.09,12.1,6.4,19.97,10.48,7.86,18.27,8.17,18.5,13.88.23,5.7.77,15.03,5.4,17.19,0,0-3.31-3.08-3.16-10.25Z"/>
  <path class="st0" d="M11.43,47.15c5.7,4.86,12.96,6.09,14.35,6.86,1.39.77,7.63,2.85,9.02,6.86,0,0,.15-4.01-5.78-7.86-5.94-3.85-13.49-6.48-15.96-8.71-2.47-2.24-6.09-7.09-6.63-10.87,0,0-.71,8.86,5,13.72Z"/>
  <path class="st0" d="M28.24,59.64c3.85.85,6.55,3.16,6.55,3.16,0,0-2.62-4.09-7.32-6.01-4.7-1.93-13.72-1.85-20.81-9.64,0,0,1.46,7.09,8.63,9.79,7.17,2.7,9.1,1.85,12.95,2.7Z"/>
  <path class="st0" d="M34.8,64.88s-2.85-3.12-5.94-3.49c-3.08-.37-11.79.02-15.73-3.22,0,0,2.7,5.4,7.59,6.24,4.89.85,10.29-1.08,14.07.46Z"/>
  <path class="st0" d="M27.94,68.81c3.7-.62,3.24-1.93,6.86-2,0,0-1.7-1.85-4.78-1.08-3.08.77-7.63.97-8.94.45,0,0,3.16,3.25,6.86,2.64Z"/>
  <path class="st0" d="M35.95,68.89s-2.47-.92-3.85,0c-1.39.92-4.16,2.54-6.55,2.47,0,0,3.55,1.7,5.55.62,2-1.08,3.55-3.16,4.86-3.08Z"/>
  <path class="st0" d="M36.57,70.97c-1.72-.28-2.39.46-3.16,1.36-.77.9-2.66,1.64-2.66,1.64,2.04.54,3.82-.62,4.05-1.53.23-.92,1.77-1.47,1.77-1.47Z"/>
  <path class="st0" d="M34.8,75.51s1.31.08,1.77-.85c.46-.93,0-1.59.46-2.16,0,0-1.31-.23-2.24,3.01Z"/>
  <path class="st0" d="M56.48,57.22h.96v-5.06s-.85.38-1.47.33-3.51-.76-4.81-.65c0,0,1.98.71,2.43,1.09,0,0,2.77.65,2.88,4.3Z"/>
  <path class="st0" d="M53.83,60.9c.6-.76,1.01-1.75,1.01-3.08,0-5.12-5.09-5.66-6.39-5.66s-3.62.54-4.35.54-1.75-.54-1.75-.54v5.61h.9s.4-4.63,4.52-4.63,4.13,3.81,4.13,4.63c0,.29,0,1.11-.33,2-2.76-1.31-4.79-2.3-2.99-5.81h-1.77s-1.31,1.51-.79,4.03c.46,2.26,2.09,3.29,3.8,4.01-1.03.65-2.57,1.04-4.87.78v.93s6.39-.27,6.95,3.59c.57,3.87-.62,6.05-3.05,8.22,0,0,6.33-.93,6.33-5.83s-3.9-5.99-6.42-6.15v-.33s1.27-.06,2.64-.61c.25.09.49.18.72.28,2.26.93,5.62,4.14,4.08,8.19,0,0,2.72-2.59,2.29-5.28-.34-2.14-1.67-3.27-4.67-4.89Z"/>
  <path class="st0" d="M51.2,71.46c-.39-.06-.35-.03-.65-.1,0,0-2.77-.65-2.88-4.3h-.96v5.06s.85-.38,1.47-.33c.4.04,1.55.29,2.8.47,0,0,.23-.44.23-.8Z"/>
</svg>